# xmcd
#
# Track frame offsets: 
#        150
#        17977
#        31344
#        45814
#        61107
#        77232
#        86602
#        100575
#        118602
#        141250
#
# Disc length: 2048 seconds
#
# Revision: 4
# Processed by: cddbd v1.5.2PL0 Copyright (c) Steve Scherf et al.
# Submitted via: ExactAudioCopy v0.99pb5
#
DISCID=7307fe0a
DTITLE=The Blues Band - The Bootleg Album
DYEAR=1980
DGENRE=Blues
TTITLE0=Talk To Me Baby
TTITLE1=Flatfoot Sam
TTITLE2=Two Bones And A Pick
TTITLE3=Someday Baby
TTITLE4=Boom Boom (Out Go The Lights)
TTITLE5=Come On In
TTITLE6=Death Letter
TTITLE7=Going Home
TTITLE8=I Don't Know
TTITLE9=Diddy Wah Diddy
EXTD=
EXTT0=
EXTT1=
EXTT2=
EXTT3=
EXTT4=
EXTT5=
EXTT6=
EXTT7=
EXTT8=
EXTT9=
PLAYORDER=
